
<svg width="120" height="40" viewBox="0 0 120 40" fill="none" xmlns="http://www.w3.org/2000/svg">
  <path d="M15 8C10.5817 8 7 11.5817 7 16V24C7 28.4183 10.5817 32 15 32H20C24.4183 32 28 28.4183 28 24V16C28 11.5817 24.4183 8 20 8H15Z" fill="#9b87f5"/>
  <path d="M34 8H39C43.4183 8 47 11.5817 47 16V24C47 28.4183 43.4183 32 39 32H34C29.5817 32 26 28.4183 26 24V16C26 11.5817 29.5817 8 34 8Z" fill="#9b87f5"/>
  <path d="M53 8H58C62.4183 8 66 11.5817 66 16V16C66 20.4183 62.4183 24 58 24H53C48.5817 24 45 20.4183 45 16V16C45 11.5817 48.5817 8 53 8Z" fill="#9b87f5"/>
  <path d="M72 8H77C81.4183 8 85 11.5817 85 16V24C85 28.4183 81.4183 32 77 32H72C67.5817 32 64 28.4183 64 24V16C64 11.5817 67.5817 8 72 8Z" fill="#9b87f5"/>
  <path d="M91 8H96C100.418 8 104 11.5817 104 16V24C104 28.4183 100.418 32 96 32H91C86.5817 32 83 28.4183 83 24V16C83 11.5817 86.5817 8 91 8Z" fill="#9b87f5"/>
  <path d="M110 8H115C119.418 8 123 11.5817 123 16V16C123 20.4183 119.418 24 115 24H110C105.582 24 102 20.4183 102 16V16C102 11.5817 105.582 8 110 8Z" fill="#9b87f5"/>
  <path d="M53 24H58C62.4183 24 66 27.5817 66 32V32C66 36.4183 62.4183 40 58 40H53C48.5817 40 45 36.4183 45 32V32C45 27.5817 48.5817 24 53 24Z" fill="#9b87f5"/>
  <path d="M110 24H115C119.418 24 123 27.5817 123 32V32C123 36.4183 119.418 40 115 40H110C105.582 40 102 36.4183 102 32V32C102 27.5817 105.582 24 110 24Z" fill="#9b87f5"/>
</svg>
